# 3ds Max Wavefront OBJ Exporter v0.99 - (c)2007 guruware
# File Created: 16.03.2023 13:35:20

mtllib sword.mtl

#
# object Sword
#

v  -2.6514 0.0643 -1.2067
v  -2.6804 0.0643 -1.1947
v  -2.6804 0.4275 -1.1947
v  -2.6514 0.4275 -1.2067
v  -2.6924 0.0643 -1.1657
v  -2.6924 0.4275 -1.1657
v  -2.6804 0.0643 -1.1366
v  -2.6804 0.4275 -1.1366
v  -2.6514 0.0643 -1.1246
v  -2.6514 0.4275 -1.1246
v  -2.6224 0.0643 -1.1366
v  -2.6224 0.4275 -1.1366
v  -2.6104 0.0643 -1.1657
v  -2.6104 0.4275 -1.1657
v  -2.6224 0.0643 -1.1947
v  -2.6224 0.4275 -1.1947
v  -2.7780 0.4275 -1.2034
v  -2.7688 0.4275 -1.2235
v  -2.6514 0.4275 -1.2334
v  -2.7820 0.4275 -1.1657
v  -2.7780 0.4275 -1.1279
v  -2.6514 0.4275 -1.0979
v  -2.7688 0.4275 -1.1078
v  -2.5248 0.4275 -1.1279
v  -2.5340 0.4275 -1.1078
v  -2.5208 0.4275 -1.1657
v  -2.5248 0.4275 -1.2034
v  -2.5340 0.4275 -1.2235
v  -2.7688 0.4775 -1.2235
v  -2.6514 0.4775 -1.2334
v  -2.8516 0.4275 -1.2136
v  -2.8519 0.4275 -1.1657
v  -2.8519 0.4775 -1.1657
v  -2.8516 0.4775 -1.2136
v  -2.8516 0.4275 -1.1177
v  -2.8516 0.4775 -1.1177
v  -2.7688 0.4775 -1.1078
v  -2.5340 0.4775 -1.1078
v  -2.6514 0.4775 -1.0979
v  -2.4511 0.4275 -1.1177
v  -2.4508 0.4275 -1.1657
v  -2.4508 0.4775 -1.1657
v  -2.4511 0.4775 -1.1177
v  -2.4511 0.4275 -1.2136
v  -2.4511 0.4775 -1.2136
v  -2.5340 0.4775 -1.2235
v  -2.7594 0.4775 -1.2032
v  -2.6514 0.4775 -1.2046
v  -2.8176 0.4775 -1.1657
v  -2.7594 0.4775 -1.1282
v  -2.5434 0.4775 -1.1282
v  -2.6514 0.4775 -1.1267
v  -2.4851 0.4775 -1.1657
v  -2.5434 0.4775 -1.2032
v  -2.7594 1.0124 -1.2032
v  -2.6514 1.0124 -1.2096
v  -2.7594 1.0124 -1.1282
v  -2.8176 1.0124 -1.1657
v  -2.5434 1.0124 -1.1282
v  -2.6514 1.0124 -1.1217
v  -2.5434 1.0124 -1.2032
v  -2.4851 1.0124 -1.1657
v  -2.7594 1.4615 -1.2032
v  -2.6514 1.4615 -1.2096
v  -2.7594 1.4615 -1.1282
v  -2.8176 1.4615 -1.1657
v  -2.5434 1.4615 -1.1282
v  -2.6514 1.4615 -1.1217
v  -2.5434 1.4615 -1.2032
v  -2.4851 1.4615 -1.1657
v  -2.6514 1.6364 -1.1876
v  -2.6514 1.6364 -1.1437
v  -2.6514 1.7418 -1.1657
v  -2.6514 0.0643 -1.2192
v  -2.6891 0.0643 -1.2035
v  -2.7048 0.0643 -1.1657
v  -2.6891 0.0643 -1.1278
v  -2.6514 0.0643 -1.1121
v  -2.6136 0.0643 -1.1278
v  -2.5980 0.0643 -1.1657
v  -2.6136 0.0643 -1.2035
v  -2.6514 0.0233 -1.2192
v  -2.6891 0.0233 -1.2035
v  -2.7048 0.0233 -1.1657
v  -2.6891 0.0233 -1.1278
v  -2.6514 0.0233 -1.1121
v  -2.6136 0.0233 -1.1278
v  -2.5980 0.0233 -1.1657
v  -2.6136 0.0233 -1.2035
v  -2.6514 0.0041 -1.1657
# 90 vertices

vn -0.0000 0.7345 -0.6786
vn -0.2267 0.7654 -0.6023
vn -0.2267 -0.7654 -0.6023
vn -0.0000 -0.7345 -0.6787
vn -0.3309 0.9437 -0.0000
vn -0.3309 -0.9437 0.0000
vn -0.2267 0.7654 0.6023
vn -0.2267 -0.7654 0.6023
vn 0.0000 0.7345 0.6786
vn 0.0000 -0.7345 0.6787
vn 0.2267 0.7654 0.6023
vn 0.2267 -0.7654 0.6023
vn 0.3309 0.9437 0.0000
vn 0.3309 -0.9437 0.0000
vn 0.2267 0.7654 -0.6023
vn 0.2267 -0.7654 -0.6023
vn -0.0000 -1.0000 0.0000
vn -0.0206 -0.7060 -0.7079
vn -0.0000 -0.7018 -0.7124
vn -0.0000 -1.0000 -0.0000
vn -0.0000 -0.7017 0.7124
vn -0.0206 -0.7060 0.7079
vn 0.0000 -1.0000 -0.0000
vn 0.0206 -0.7060 0.7079
vn 0.0000 -1.0000 0.0000
vn 0.0206 -0.7060 -0.7079
vn -0.0206 0.7059 -0.7080
vn -0.0000 0.7018 -0.7124
vn -0.5788 -0.5804 -0.5728
vn -0.7124 -0.7018 0.0000
vn -0.7124 0.7018 0.0000
vn -0.5788 0.5804 -0.5728
vn -0.5788 -0.5804 0.5728
vn -0.5788 0.5804 0.5728
vn -0.0206 0.7060 0.7079
vn 0.0206 0.7059 0.7080
vn 0.0000 0.7017 0.7124
vn 0.5788 -0.5804 0.5728
vn 0.7124 -0.7018 -0.0000
vn 0.7124 0.7018 -0.0000
vn 0.5788 0.5804 0.5728
vn 0.5788 -0.5804 -0.5728
vn 0.5788 0.5804 -0.5728
vn 0.0206 0.7060 -0.7079
vn -0.0633 0.7276 -0.6831
vn -0.0000 0.7068 -0.7074
vn -0.0951 0.9955 0.0000
vn -0.0633 0.7276 0.6831
vn 0.0633 0.7276 0.6831
vn 0.0000 0.7068 0.7074
vn 0.0951 0.9955 -0.0000
vn 0.0633 0.7276 -0.6831
vn -0.0988 0.0000 -0.9951
vn -0.0000 -0.0017 -1.0000
vn -0.0988 -0.0000 0.9951
vn -1.0000 0.0000 0.0000
vn 0.0988 0.0000 0.9951
vn 0.0000 -0.0017 1.0000
vn 0.0988 0.0000 -0.9951
vn 1.0000 0.0000 -0.0000
vn -0.1153 0.0672 -0.9911
vn -0.0000 0.0226 -0.9997
vn -0.1153 0.0672 0.9911
vn -0.9630 0.2695 0.0000
vn 0.1153 0.0672 0.9911
vn 0.0000 0.0226 0.9997
vn 0.1153 0.0672 -0.9911
vn 0.9630 0.2695 -0.0000
vn -0.0000 0.0687 -0.9976
vn 0.0000 0.0687 0.9976
vn 0.0000 1.0000 -0.0000
vn -0.0000 0.6817 -0.7317
vn -0.2656 0.6568 -0.7057
vn -0.8281 0.5606 -0.0001
vn -0.2657 0.6568 0.7057
vn -0.0000 0.6817 0.7316
vn 0.2656 0.6569 0.7057
vn 0.8281 0.5605 0.0000
vn 0.2656 0.6568 -0.7057
vn -0.0000 -0.3751 -0.9270
vn -0.3376 -0.4740 -0.8133
vn -0.8742 -0.4856 -0.0000
vn -0.3376 -0.4740 0.8133
vn 0.0000 -0.3751 0.9270
vn 0.3376 -0.4740 0.8133
vn 0.8742 -0.4856 0.0000
vn 0.3376 -0.4740 -0.8133
# 87 vertex normals

vt 0.7383 0.3559 0.0000
vt 0.7043 0.3559 0.0000
vt 0.7044 0.0237 0.0000
vt 0.7382 0.0237 0.0000
vt 0.6873 0.3559 0.0000
vt 0.6875 0.0237 0.0000
vt 0.8904 0.3557 0.0000
vt 0.8735 0.3557 0.0000
vt 0.8732 0.0237 0.0000
vt 0.8901 0.0237 0.0000
vt 0.8398 0.3557 0.0000
vt 0.8394 0.0237 0.0000
vt 0.8059 0.3558 0.0000
vt 0.8057 0.0237 0.0000
vt 0.7890 0.3558 0.0000
vt 0.7888 0.0237 0.0000
vt 0.7720 0.3558 0.0000
vt 0.7720 0.0237 0.0000
vt 0.8591 0.6245 0.0000
vt 0.8518 0.5972 0.0000
vt 0.8625 0.5051 0.0000
vt 0.8768 0.5138 0.0000
vt 0.8786 0.6245 0.0000
vt 0.8313 0.5859 0.0000
vt 0.8351 0.5014 0.0000
vt 0.8097 0.5973 0.0000
vt 0.8074 0.5052 0.0000
vt 0.7999 0.6246 0.0000
vt 0.7805 0.6247 0.0000
vt 0.7923 0.5139 0.0000
vt 0.8072 0.6520 0.0000
vt 0.7966 0.7441 0.0000
vt 0.7823 0.7354 0.0000
vt 0.8278 0.6632 0.0000
vt 0.8240 0.7478 0.0000
vt 0.8493 0.6519 0.0000
vt 0.8517 0.7439 0.0000
vt 0.8667 0.7352 0.0000
vt 0.9777 0.5126 0.0000
vt 0.9794 0.6242 0.0000
vt 0.8729 0.4354 0.0000
vt 0.8380 0.4353 0.0000
vt 0.8390 0.3981 0.0000
vt 0.8740 0.3980 0.0000
vt 0.8030 0.4356 0.0000
vt 0.8040 0.3983 0.0000
vt 0.6913 0.5132 0.0000
vt 0.7019 0.4346 0.0000
vt 0.6813 0.7366 0.0000
vt 0.6796 0.6249 0.0000
vt 0.7861 0.8137 0.0000
vt 0.8211 0.8138 0.0000
vt 0.8200 0.8510 0.0000
vt 0.7851 0.8511 0.0000
vt 0.8561 0.8135 0.0000
vt 0.8551 0.8508 0.0000
vt 0.9678 0.7359 0.0000
vt 0.9571 0.8145 0.0000
vt 0.7713 0.9631 0.0000
vt 0.6613 0.9561 0.0000
vt 0.6701 0.9417 0.0000
vt 0.7713 0.9427 0.0000
vt 0.5837 0.9490 0.0000
vt 0.5834 0.9151 0.0000
vt 0.6155 0.9151 0.0000
vt 0.5837 0.8812 0.0000
vt 0.6613 0.8742 0.0000
vt 0.6701 0.8886 0.0000
vt 0.7713 0.8671 0.0000
vt 0.8813 0.8742 0.0000
vt 0.8725 0.8886 0.0000
vt 0.7713 0.8875 0.0000
vt 0.9589 0.8812 0.0000
vt 0.9592 0.9151 0.0000
vt 0.9271 0.9151 0.0000
vt 0.9589 0.9490 0.0000
vt 0.8813 0.9561 0.0000
vt 0.8725 0.9417 0.0000
vt 0.1847 0.0225 0.0000
vt 0.2797 0.0219 0.0000
vt 0.2821 0.3925 0.0000
vt 0.1871 0.3932 0.0000
vt 0.3632 0.0286 0.0000
vt 0.4152 0.0283 0.0000
vt 0.4176 0.3989 0.0000
vt 0.3655 0.3993 0.0000
vt 0.5102 0.0277 0.0000
vt 0.6052 0.0270 0.0000
vt 0.6076 0.3977 0.0000
vt 0.5126 0.3983 0.0000
vt 0.0377 0.0234 0.0000
vt 0.0898 0.0231 0.0000
vt 0.0921 0.3938 0.0000
vt 0.0400 0.3941 0.0000
vt 0.2841 0.7036 0.0000
vt 0.1891 0.7042 0.0000
vt 0.4197 0.7100 0.0000
vt 0.3676 0.7107 0.0000
vt 0.6095 0.7087 0.0000
vt 0.5146 0.7094 0.0000
vt 0.0942 0.7048 0.0000
vt 0.0421 0.7055 0.0000
vt 0.1899 0.8257 0.0000
vt 0.5154 0.8308 0.0000
vt 0.5159 0.9041 0.0000
vt 0.1904 0.8990 0.0000
vt 0.9740 0.4340 0.0000
vt 0.6850 0.8151 0.0000
vt 0.3318 0.0216 0.0000
vt 0.3342 0.3922 0.0000
vt 0.6573 0.0267 0.0000
vt 0.6597 0.3974 0.0000
vt 0.3362 0.7036 0.0000
vt 0.6616 0.7088 0.0000
vt 0.3019 0.8205 0.0000
vt 0.3566 0.7955 0.0000
vt 0.3561 0.8114 0.0000
vt 0.3121 0.8313 0.0000
vt 0.2742 0.8718 0.0000
vt 0.2912 0.8726 0.0000
vt 0.2975 0.9287 0.0000
vt 0.3102 0.9171 0.0000
vt 0.3528 0.9490 0.0000
vt 0.3522 0.9336 0.0000
vt 0.4086 0.9293 0.0000
vt 0.3957 0.9180 0.0000
vt 0.4394 0.8721 0.0000
vt 0.4193 0.8740 0.0000
vt 0.4119 0.8179 0.0000
vt 0.4002 0.8311 0.0000
vt 0.3555 0.8463 0.0000
vt 0.3353 0.8553 0.0000
vt 0.3276 0.8731 0.0000
vt 0.3340 0.8931 0.0000
vt 0.3533 0.8994 0.0000
vt 0.3737 0.8924 0.0000
vt 0.3814 0.8715 0.0000
vt 0.3750 0.8546 0.0000
vt 0.3544 0.8728 0.0000
# 139 texture coords

o Sword
g Sword
usemtl sword
s 8
f 1/1/1 2/2/2 3/3/3 4/4/4 
f 2/2/2 5/5/5 6/6/6 3/3/3 
f 5/7/5 7/8/7 8/9/8 6/10/6 
f 7/8/7 9/11/9 10/12/10 8/9/8 
f 9/11/9 11/13/11 12/14/12 10/12/10 
f 11/13/11 13/15/13 14/16/14 12/14/12 
f 13/15/13 15/17/15 16/18/16 14/16/14 
f 15/17/15 1/1/1 4/4/4 16/18/16 
s off
f 4/19/4 3/20/3 17/21/17 18/22/18 19/23/19 
f 3/20/3 6/24/6 20/25/20 17/21/17 
f 6/24/6 8/26/8 21/27/20 20/25/20 
f 8/26/8 10/28/10 22/29/21 23/30/22 21/27/20 
f 10/28/10 12/31/12 24/32/23 25/33/24 22/29/21 
f 12/31/12 14/34/14 26/35/23 24/32/23 
f 14/34/14 16/36/16 27/37/25 26/35/23 
f 16/36/16 4/19/4 19/23/19 28/38/26 27/37/25 
f 19/23/19 18/22/18 29/39/27 30/40/28 
f 31/41/29 32/42/30 33/43/31 34/44/32 
f 32/42/30 35/45/33 36/46/34 33/43/31 
f 35/45/33 23/30/22 37/47/35 36/48/34 
f 22/29/21 25/33/24 38/49/36 39/50/37 
f 40/51/38 41/52/39 42/53/40 43/54/41 
f 41/52/39 44/55/42 45/56/43 42/53/40 
f 44/55/42 28/38/26 46/57/44 45/58/43 
f 30/59/28 29/60/27 47/61/45 48/62/46 
f 34/63/32 33/64/31 49/65/47 
f 33/64/31 36/66/34 49/65/47 
f 36/66/34 37/67/35 50/68/48 49/65/47 
f 39/69/37 38/70/36 51/71/49 52/72/50 
f 43/73/41 42/74/40 53/75/51 
f 42/74/40 45/76/43 53/75/51 
f 45/76/43 46/77/44 54/78/52 53/75/51 
f 48/79/46 47/80/45 55/81/53 56/82/54 
f 49/83/47 50/84/48 57/85/55 58/86/56 
f 52/87/50 51/88/49 59/89/57 60/90/58 
f 53/91/51 54/92/52 61/93/59 62/94/60 
f 56/82/54 55/81/53 63/95/61 64/96/62 
f 58/86/56 57/85/55 65/97/63 66/98/64 
f 60/90/58 59/89/57 67/99/65 68/100/66 
f 62/94/60 61/93/59 69/101/67 70/102/68 
f 64/96/62 63/95/61 71/103/69 
f 66/98/64 65/97/63 72/104/70 73/105/71 
f 68/100/66 67/99/65 72/104/70 
f 70/102/68 69/101/67 71/103/69 73/106/71 
f 17/21/17 31/41/29 18/22/18 
f 20/25/20 32/42/30 31/41/29 17/21/17 
f 21/27/20 35/45/33 32/42/30 20/25/20 
f 23/30/22 35/45/33 21/27/20 
f 24/32/23 40/51/38 25/33/24 
f 26/35/23 41/52/39 40/51/38 24/32/23 
f 27/37/25 44/55/42 41/52/39 26/35/23 
f 28/38/26 44/55/42 27/37/25 
f 18/22/18 31/41/29 34/107/32 29/39/27 
f 23/30/22 22/29/21 39/50/37 37/47/35 
f 25/33/24 40/51/38 43/108/41 38/49/36 
f 28/38/26 19/23/19 30/40/28 46/57/44 
f 29/60/27 34/63/32 49/65/47 47/61/45 
f 37/67/35 39/69/37 52/72/50 50/68/48 
f 38/70/36 43/73/41 53/75/51 51/71/49 
f 46/77/44 30/59/28 48/62/46 54/78/52 
f 47/80/45 49/109/47 58/110/56 55/81/53 
f 50/84/48 52/87/50 60/90/58 57/85/55 
f 51/88/49 53/111/51 62/112/60 59/89/57 
f 54/92/52 48/79/46 56/82/54 61/93/59 
f 55/81/53 58/110/56 66/113/64 63/95/61 
f 57/85/55 60/90/58 68/100/66 65/97/63 
f 59/89/57 62/112/60 70/114/68 67/99/65 
f 61/93/59 56/82/54 64/96/62 69/101/67 
f 63/95/61 66/113/64 73/106/71 71/103/69 
f 65/97/63 68/100/66 72/104/70 
f 67/99/65 70/114/68 73/105/71 72/104/70 
f 69/101/67 64/96/62 71/103/69 
f 2/115/2 1/116/1 74/117/72 75/118/73 
f 5/119/5 2/115/2 75/118/73 76/120/74 
f 7/121/7 5/119/5 76/120/74 77/122/75 
f 9/123/9 7/121/7 77/122/75 78/124/76 
f 11/125/11 9/123/9 78/124/76 79/126/77 
f 13/127/13 11/125/11 79/126/77 80/128/78 
f 15/129/15 13/127/13 80/128/78 81/130/79 
f 1/116/1 15/129/15 81/130/79 74/117/72 
f 75/118/73 74/117/72 82/131/80 83/132/81 
f 76/120/74 75/118/73 83/132/81 84/133/82 
f 77/122/75 76/120/74 84/133/82 85/134/83 
f 78/124/76 77/122/75 85/134/83 86/135/84 
f 79/126/77 78/124/76 86/135/84 87/136/85 
f 80/128/78 79/126/77 87/136/85 88/137/86 
f 81/130/79 80/128/78 88/137/86 89/138/87 
f 74/117/72 81/130/79 89/138/87 82/131/80 
f 83/132/81 82/131/80 90/139/23 
f 84/133/82 83/132/81 90/139/23 
f 85/134/83 84/133/82 90/139/23 
f 86/135/84 85/134/83 90/139/23 
f 87/136/85 86/135/84 90/139/23 
f 88/137/86 87/136/85 90/139/23 
f 89/138/87 88/137/86 90/139/23 
f 82/131/80 89/138/87 90/139/23 
# 76 polygons - 20 triangles

