# 3ds Max Wavefront OBJ Exporter v0.99 - (c)2007 guruware
# File Created: 26.03.2023 01:18:14

mtllib slash.mtl

#
# object Slash
#

v  -0.6044 1.9121 -0.0537
v  -0.1073 1.9647 -0.9944
v  -0.4210 2.1710 -0.6953
v  -0.6148 1.8747 0.2843
v  0.7834 0.2778 0.6196
v  1.8397 -0.0286 1.0726
v  1.9289 0.0669 0.8251
v  0.8062 0.2832 0.5181
v  1.4096 -0.1271 1.7552
v  0.6288 0.2886 0.9264
v  0.4269 0.3660 1.1907
v  0.9271 0.0674 2.2397
v  0.1334 0.7021 1.3569
v  0.2701 0.8521 2.5019
v  -0.2552 1.1966 1.3316
v  -0.6593 2.2361 1.7941
v  -0.4628 1.5787 1.0043
v  -0.8293 2.5287 0.4327
v  -0.7156 2.3192 -0.2876
v  -0.5850 1.7696 0.6345
v  -0.5305 1.8379 -0.2829
v  0.1684 1.5587 -1.1118
v  0.8124 0.3019 0.4399
v  1.9663 0.2272 0.6165
v  1.9703 0.4254 0.3776
v  0.8096 0.3205 0.3613
v  1.6863 -0.1114 1.3978
v  0.7341 0.2796 0.7431
# 28 vertices

vn 0.0130 -0.9967 -0.0807
vn 0.8247 0.3067 0.4753
vn 0.8136 0.4429 0.3766
vn 0.0988 -0.9060 -0.4117
vn 0.3517 0.9252 0.1426
vn 0.1721 0.8517 0.4949
vn 0.0495 0.7558 0.6529
vn 0.2091 0.9427 0.2601
vn 0.4721 0.8542 0.2177
vn 0.5267 0.8366 0.1507
vn 0.7258 0.6862 -0.0481
vn 0.7205 0.6922 -0.0428
vn 0.8444 0.4946 -0.2058
vn 0.8860 0.4204 -0.1956
vn 0.7912 0.3436 -0.5059
vn 0.9573 0.2712 -0.1003
vn 0.8706 0.0318 -0.4910
vn 0.9691 0.2465 0.0063
vn 0.8977 0.3789 0.2251
vn 0.4937 -0.5968 -0.6325
vn -0.0341 -0.8947 0.4453
vn 0.7932 0.2496 0.5554
vn 0.0404 0.9352 0.3517
vn -0.0539 0.6250 0.7787
vn -0.0946 0.6055 0.7902
vn -0.1330 0.9265 0.3520
vn 0.2898 0.8743 0.3893
vn 0.4383 0.8818 0.1741
# 28 vertex normals

vt 0.9355 0.1465 0.0000
vt 0.9355 0.8716 0.0000
vt 0.8794 0.8716 0.0000
vt 0.8794 0.1465 0.0000
vt 0.1209 0.1465 0.0000
vt 0.1209 0.8716 0.0000
vt 0.0826 0.8716 0.0000
vt 0.0826 0.1465 0.0000
vt 0.2517 0.8716 0.0000
vt 0.2517 0.1465 0.0000
vt 0.3507 0.1465 0.0000
vt 0.3507 0.8716 0.0000
vt 0.4930 0.1465 0.0000
vt 0.4930 0.8716 0.0000
vt 0.6410 0.1465 0.0000
vt 0.6410 0.8716 0.0000
vt 0.7322 0.1465 0.0000
vt 0.7322 0.8716 0.0000
vt 0.8077 0.8716 0.0000
vt 0.8077 0.1465 0.0000
vt 0.9746 0.1465 0.0000
vt 0.9746 0.8716 0.0000
vt 0.0549 0.1465 0.0000
vt 0.0549 0.8716 0.0000
vt 0.0270 0.8716 0.0000
vt 0.0270 0.1465 0.0000
vt 0.1716 0.8716 0.0000
vt 0.1716 0.1465 0.0000
# 28 texture coords

o Slash
g Slash
usemtl wire_086086086
s 6
f 1/1/1 2/2/2 3/3/3 4/4/4 
f 5/5/5 6/6/6 7/7/7 8/8/8 
f 9/9/9 10/10/10 11/11/11 12/12/12 
f 12/12/12 11/11/11 13/13/13 14/14/14 
f 14/14/14 13/13/13 15/15/15 16/16/16 
f 16/16/16 15/15/15 17/17/17 18/18/18 
f 19/19/19 20/20/20 4/4/4 3/3/3 
f 2/2/2 1/1/1 21/21/21 22/22/22 
f 23/23/23 24/24/24 25/25/25 26/26/26 
f 9/9/9 27/27/27 28/28/28 10/10/10 
f 18/18/18 17/17/17 20/20/20 19/19/19 
f 28/28/28 27/27/27 6/6/6 5/5/5 
f 8/8/8 7/7/7 24/24/24 23/23/23 
# 13 polygons

